<svg xmlns="http://www.w3.org/2000/svg" viewBox="0 0 640 392" width="640" height="392" font-family="Segoe UI,Helvetica,Arial,sans-serif">
<rect x="0" y="0" width="640" height="392" rx="14" fill="#ffffff"/>
<text x="320" y="30" text-anchor="middle" font-size="20" font-weight="700" fill="#222222">Expectation outcomes: lexicon vs LLM</text>
<text x="320" y="50" text-anchor="middle" font-size="13" fill="#222222">% of doc-relevant records by whether the docs met expectations</text>
<text x="320" y="68" text-anchor="middle" font-size="11" fill="#666666">N_lexicon=1038  ·  N_llm=375  ·  snapshot 20260703T153834Z  (Hacker News + NixOS Discourse)</text>
<line x1="160.0" y1="108" x2="160.0" y2="352" stroke="#d0d0d0" stroke-width="1"/>
<text x="160.0" y="368" text-anchor="middle" font-size="10" fill="#666666">0%</text>
<line x1="220.0" y1="108" x2="220.0" y2="352" stroke="#d0d0d0" stroke-width="1"/>
<text x="220.0" y="368" text-anchor="middle" font-size="10" fill="#666666">10%</text>
<line x1="280.0" y1="108" x2="280.0" y2="352" stroke="#d0d0d0" stroke-width="1"/>
<text x="280.0" y="368" text-anchor="middle" font-size="10" fill="#666666">20%</text>
<line x1="340.0" y1="108" x2="340.0" y2="352" stroke="#d0d0d0" stroke-width="1"/>
<text x="340.0" y="368" text-anchor="middle" font-size="10" fill="#666666">30%</text>
<line x1="400.0" y1="108" x2="400.0" y2="352" stroke="#d0d0d0" stroke-width="1"/>
<text x="400.0" y="368" text-anchor="middle" font-size="10" fill="#666666">40%</text>
<line x1="460.0" y1="108" x2="460.0" y2="352" stroke="#d0d0d0" stroke-width="1"/>
<text x="460.0" y="368" text-anchor="middle" font-size="10" fill="#666666">50%</text>
<line x1="520.0" y1="108" x2="520.0" y2="352" stroke="#d0d0d0" stroke-width="1"/>
<text x="520.0" y="368" text-anchor="middle" font-size="10" fill="#666666">60%</text>
<line x1="580.0" y1="108" x2="580.0" y2="352" stroke="#d0d0d0" stroke-width="1"/>
<text x="580.0" y="368" text-anchor="middle" font-size="10" fill="#666666">70%</text>
<text x="150" y="136.4" text-anchor="end" font-size="13" fill="#222222">not_met</text>
<rect x="160" y="115.8" width="116.2" height="15.6" rx="2" fill="#4E79A7"/>
<text x="281.2" y="130.4" font-size="10" fill="#666666">19%</text>
<rect x="160" y="133.4" width="360.0" height="15.6" rx="2" fill="#E15759"/>
<text x="525.0" y="148.0" font-size="10" fill="#666666">60%</text>
<text x="150" y="185.2" text-anchor="end" font-size="13" fill="#222222">unclear</text>
<rect x="160" y="164.6" width="375.1" height="15.6" rx="2" fill="#4E79A7"/>
<text x="540.1" y="179.2" font-size="10" fill="#666666">63%</text>
<rect x="160" y="182.2" width="148.8" height="15.6" rx="2" fill="#E15759"/>
<text x="313.8" y="196.8" font-size="10" fill="#666666">25%</text>
<text x="150" y="234.0" text-anchor="end" font-size="13" fill="#222222">met</text>
<rect x="160" y="213.4" width="60.1" height="15.6" rx="2" fill="#4E79A7"/>
<text x="225.1" y="228.0" font-size="10" fill="#666666">10%</text>
<rect x="160" y="231.0" width="78.4" height="15.6" rx="2" fill="#E15759"/>
<text x="243.4" y="245.6" font-size="10" fill="#666666">13%</text>
<text x="150" y="282.8" text-anchor="end" font-size="13" fill="#222222">no_baseline</text>
<rect x="160" y="262.2" width="48.0" height="15.6" rx="2" fill="#4E79A7"/>
<text x="213.0" y="276.8" font-size="10" fill="#666666">8%</text>
<rect x="160" y="279.8" width="3.2" height="15.6" rx="2" fill="#E15759"/>
<text x="168.2" y="294.4" font-size="10" fill="#666666">1%</text>
<text x="150" y="331.6" text-anchor="end" font-size="13" fill="#222222">exceeded</text>
<rect x="160" y="311.0" width="0.6" height="15.6" rx="2" fill="#4E79A7"/>
<text x="165.6" y="325.6" font-size="10" fill="#666666">0%</text>
<rect x="160" y="328.6" width="9.6" height="15.6" rx="2" fill="#E15759"/>
<text x="174.6" y="343.2" font-size="10" fill="#666666">2%</text>
<rect x="160" y="78" width="13" height="13" rx="3" fill="#4E79A7"/>
<text x="178" y="90" font-size="12" fill="#222222">lexicon</text>
<rect x="250" y="78" width="13" height="13" rx="3" fill="#E15759"/>
<text x="268" y="90" font-size="12" fill="#222222">LLM</text>
</svg>
