<svg xmlns="http://www.w3.org/2000/svg" viewBox="0 0 740 640" width="740" height="640" font-family="Segoe UI,Helvetica,Arial,sans-serif">
<rect x="0" y="0" width="740" height="640" rx="14" fill="#ffffff"/>
<text x="370" y="32" text-anchor="middle" font-size="20" font-weight="700" fill="#222222">Documentation-aspect profile: lexicon vs LLM</text>
<text x="370" y="52" text-anchor="middle" font-size="13" fill="#222222">% of doc-relevant records that discuss each facet — higher = talked about more, not better</text>
<text x="370" y="70" text-anchor="middle" font-size="11" fill="#666666">N_lexicon=1038  ·  N_llm=375  ·  snapshot 20260703T153834Z  (Hacker News + NixOS Discourse)</text>
<polygon points="370.0,290.0 393.5,297.6 408.0,317.6 408.0,342.4 393.5,362.4 370.0,370.0 346.5,362.4 332.0,342.4 332.0,317.6 346.5,297.6" fill="none" stroke="#d0d0d0" stroke-width="1"/>
<text x="374" y="288" font-size="9" fill="#666666">10%</text>
<polygon points="370.0,250.0 417.0,265.3 446.1,305.3 446.1,354.7 417.0,394.7 370.0,410.0 323.0,394.7 293.9,354.7 293.9,305.3 323.0,265.3" fill="none" stroke="#d0d0d0" stroke-width="1"/>
<text x="374" y="248" font-size="9" fill="#666666">20%</text>
<polygon points="370.0,210.0 440.5,232.9 484.1,292.9 484.1,367.1 440.5,427.1 370.0,450.0 299.5,427.1 255.9,367.1 255.9,292.9 299.5,232.9" fill="none" stroke="#d0d0d0" stroke-width="1"/>
<text x="374" y="208" font-size="9" fill="#666666">30%</text>
<polygon points="370.0,170.0 464.0,200.6 522.2,280.6 522.2,379.4 464.0,459.4 370.0,490.0 276.0,459.4 217.8,379.4 217.8,280.6 276.0,200.6" fill="none" stroke="#d0d0d0" stroke-width="1"/>
<text x="374" y="168" font-size="9" fill="#666666">40%</text>
<polygon points="370.0,130.0 487.6,168.2 560.2,268.2 560.2,391.8 487.6,491.8 370.0,530.0 252.4,491.8 179.8,391.8 179.8,268.2 252.4,168.2" fill="none" stroke="#d0d0d0" stroke-width="1"/>
<text x="374" y="128" font-size="9" fill="#666666">50%</text>
<line x1="370" y1="330" x2="370.0" y2="130.0" stroke="#d0d0d0" stroke-width="1"/>
<text x="370.0" y="106.0" text-anchor="middle" font-size="12" fill="#222222">completeness</text>
<line x1="370" y1="330" x2="487.6" y2="168.2" stroke="#d0d0d0" stroke-width="1"/>
<text x="504.0" y="149.5" text-anchor="start" font-size="12" fill="#222222">discoverability</text>
<line x1="370" y1="330" x2="560.2" y2="268.2" stroke="#d0d0d0" stroke-width="1"/>
<text x="586.8" y="263.5" text-anchor="start" font-size="12" fill="#222222">accuracy</text>
<line x1="370" y1="330" x2="560.2" y2="391.8" stroke="#d0d0d0" stroke-width="1"/>
<text x="586.8" y="404.5" text-anchor="start" font-size="12" fill="#222222">onboarding</text>
<line x1="370" y1="330" x2="487.6" y2="491.8" stroke="#d0d0d0" stroke-width="1"/>
<text x="504.0" y="518.5" text-anchor="start" font-size="12" fill="#222222">explanation</text>
<line x1="370" y1="330" x2="370.0" y2="530.0" stroke="#d0d0d0" stroke-width="1"/>
<text x="370.0" y="562.0" text-anchor="middle" font-size="12" fill="#222222">examples</text>
<line x1="370" y1="330" x2="252.4" y2="491.8" stroke="#d0d0d0" stroke-width="1"/>
<text x="236.0" y="518.5" text-anchor="end" font-size="12" fill="#222222">structure</text>
<line x1="370" y1="330" x2="179.8" y2="391.8" stroke="#d0d0d0" stroke-width="1"/>
<text x="153.2" y="404.5" text-anchor="end" font-size="12" fill="#222222">search</text>
<line x1="370" y1="330" x2="179.8" y2="268.2" stroke="#d0d0d0" stroke-width="1"/>
<text x="153.2" y="263.5" text-anchor="end" font-size="12" fill="#222222">unofficial_reliance</text>
<line x1="370" y1="330" x2="252.4" y2="168.2" stroke="#d0d0d0" stroke-width="1"/>
<text x="236.0" y="149.5" text-anchor="end" font-size="12" fill="#222222">tooling</text>
<polygon points="370.0,301.1 372.3,326.9 408.1,317.6 456.1,358.0 385.2,350.9 370.0,412.1 269.7,468.1 340.7,339.5 350.9,323.8 332.6,278.6" fill="#4E79A7" fill-opacity="0.18" stroke="#4E79A7" stroke-width="2.5"/>
<circle cx="370.0" cy="301.1" r="3" fill="#4E79A7"/>
<circle cx="372.3" cy="326.9" r="3" fill="#4E79A7"/>
<circle cx="408.1" cy="317.6" r="3" fill="#4E79A7"/>
<circle cx="456.1" cy="358.0" r="3" fill="#4E79A7"/>
<circle cx="385.2" cy="350.9" r="3" fill="#4E79A7"/>
<circle cx="370.0" cy="412.1" r="3" fill="#4E79A7"/>
<circle cx="269.7" cy="468.1" r="3" fill="#4E79A7"/>
<circle cx="340.7" cy="339.5" r="3" fill="#4E79A7"/>
<circle cx="350.9" cy="323.8" r="3" fill="#4E79A7"/>
<circle cx="332.6" cy="278.6" r="3" fill="#4E79A7"/>
<polygon points="370.0,140.1 398.8,290.3 409.6,317.1 476.5,364.6 408.2,382.6 370.0,366.3 290.4,439.6 352.8,335.6 330.4,317.1 314.8,254.1" fill="#E15759" fill-opacity="0.18" stroke="#E15759" stroke-width="2.5"/>
<circle cx="370.0" cy="140.1" r="3" fill="#E15759"/>
<circle cx="398.8" cy="290.3" r="3" fill="#E15759"/>
<circle cx="409.6" cy="317.1" r="3" fill="#E15759"/>
<circle cx="476.5" cy="364.6" r="3" fill="#E15759"/>
<circle cx="408.2" cy="382.6" r="3" fill="#E15759"/>
<circle cx="370.0" cy="366.3" r="3" fill="#E15759"/>
<circle cx="290.4" cy="439.6" r="3" fill="#E15759"/>
<circle cx="352.8" cy="335.6" r="3" fill="#E15759"/>
<circle cx="330.4" cy="317.1" r="3" fill="#E15759"/>
<circle cx="314.8" cy="254.1" r="3" fill="#E15759"/>
<rect x="174" y="604" width="14" height="14" rx="3" fill="#4E79A7" fill-opacity="0.6" stroke="#4E79A7"/>
<text x="194" y="616" font-size="13" fill="#222222">lexicon (keyword)</text>
<rect x="410" y="604" width="14" height="14" rx="3" fill="#E15759" fill-opacity="0.6" stroke="#E15759"/>
<text x="430" y="616" font-size="13" fill="#222222">LLM (sub-agents)</text>
</svg>
